<?xml version="1.0" encoding="UTF-8" standalone="no"?>
<!-- Created with Inkscape (http://www.inkscape.org/) -->

<svg
   width="41.649555mm"
   height="45.096188mm"
   viewBox="0 0 41.649556 45.096188"
   version="1.1"
   id="svg1125"
   sodipodi:docname="travelogue.svg"
   inkscape:version="1.1.2 (0a00cf5339, 2022-02-04)"
   xmlns:inkscape="http://www.inkscape.org/namespaces/inkscape"
   xmlns:sodipodi="http://sodipodi.sourceforge.net/DTD/sodipodi-0.dtd"
   xmlns="http://www.w3.org/2000/svg"
   xmlns:svg="http://www.w3.org/2000/svg">
  <sodipodi:namedview
     id="namedview1127"
     pagecolor="#ffffff"
     bordercolor="#666666"
     borderopacity="1.0"
     inkscape:pageshadow="2"
     inkscape:pageopacity="0.0"
     inkscape:pagecheckerboard="0"
     inkscape:document-units="mm"
     showgrid="false"
     inkscape:zoom="2.0615071"
     inkscape:cx="31.772872"
     inkscape:cy="62.818121"
     inkscape:window-width="1920"
     inkscape:window-height="1050"
     inkscape:window-x="0"
     inkscape:window-y="0"
     inkscape:window-maximized="1"
     inkscape:current-layer="layer1"
     fit-margin-top="0"
     fit-margin-left="0"
     fit-margin-right="0"
     fit-margin-bottom="0" />
  <defs
     id="defs1122" />
  <g
     inkscape:label="Calque 1"
     inkscape:groupmode="layer"
     id="layer1"
     transform="translate(-107.16013,-73.490135)">
    <path
       id="path4"
       style="fill:#000000;fill-opacity:1"
       d="m 133.66016,73.492188 c -2.35967,0.460659 -4.34849,2.442363 -4.68794,4.845588 -0.43288,2.612779 0.51431,5.247234 1.95054,7.403255 0.93444,1.543495 1.86175,3.108269 2.90146,4.575375 0.52691,0.566731 1.30495,0.04682 1.5154,-0.565591 1.42347,-2.333807 2.83322,-4.717304 3.74935,-7.302329 0.55589,-1.887851 0.92224,-3.968398 0.35439,-5.895752 -0.53356,-1.711652 -2.42242,-2.801275 -4.16935,-2.387635 -0.33965,0.0034 -0.83117,0.46144 -0.69326,-0.121505 -0.0935,-0.388625 -0.55583,-0.575421 -0.92059,-0.551406 z m -0.24219,1.646484 c -1.58694,1.486758 -2.24389,4.157354 -0.89816,6.011907 0.73342,1.181223 2.47055,2.09721 3.74406,1.20971 0.96498,-0.835902 1.28424,-2.29573 1.02324,-3.514586 -0.31215,-1.104213 -1.53937,-1.984047 -2.6875,-1.75 -0.84536,0.253821 -0.51715,1.60926 0.32626,1.521474 1.08428,0.05847 1.12696,1.650787 0.51163,2.28712 -0.57572,0.538523 -1.51029,-0.101302 -1.71938,-0.748678 -0.72717,-1.256456 -0.33818,-2.875838 0.71098,-3.823797 1.04139,-1.221889 3.22121,-0.630343 3.59468,0.89845 0.348,1.739897 -0.003,3.569775 -0.5648,5.232619 -0.8465,2.052895 -1.91488,4.014071 -3.10937,5.884765 -1.14073,-1.894487 -2.39007,-3.73878 -3.29102,-5.720703 -0.8304,-2.074088 -1.04058,-4.801784 0.71072,-6.47547 0.44361,-0.441274 1.14841,-0.859263 1.64866,-1.012811 z" />
    <path
       id="path6"
       style="fill:#000000;fill-opacity:1;stroke-width:0.264583"
       d="m 128.00149,76.910032 c -3.26826,0.05492 -6.54594,0.777314 -9.46171,2.275205 -2.14358,1.090197 -4.08624,2.564937 -5.75132,4.297005 -0.27825,0.344491 -0.31199,0.950191 0.0946,1.209948 0.37813,0.233132 0.87072,0.06069 1.13711,-0.263618 0.63811,-0.655523 1.32322,-1.265213 2.04769,-1.823796 0.27792,-0.214141 0.61242,-0.458968 0.92242,-0.670759 1.26029,-0.864013 2.66759,-1.609481 4.102,-2.199105 0.11694,-0.0245 0.38386,-0.237676 0.31013,0.0028 -0.0388,0.533487 -0.44942,0.918284 -0.83135,1.243523 -0.3249,0.277458 -0.63315,0.575733 -0.86013,0.941094 -0.67156,0.967398 -0.9143,2.206638 -0.67715,3.358271 0.1165,0.67246 0.41317,1.300014 0.63362,1.920494 0.41038,1.140566 0.83457,2.343399 0.67152,3.574285 -0.0882,0.494343 -0.32503,1.066406 -0.85732,1.210779 -0.92907,0.304022 -1.91991,0.410945 -2.80809,0.839226 -1.10623,0.481836 -2.0017,1.310841 -2.88244,2.113376 -0.6455,0.581596 -1.21151,1.254715 -1.93174,1.749954 -0.0237,-0.83539 0.25647,-1.644661 0.65581,-2.368013 0.50589,-1.034979 0.92817,-2.116987 1.20093,-3.237331 0.15553,-0.708313 -0.0472,-1.523592 -0.64419,-1.972077 -0.63016,-0.474557 -1.4772,-0.470921 -2.22331,-0.355912 -0.96096,0.151881 -1.81407,0.779772 -2.27772,1.630373 -0.4204,0.740812 -0.59747,1.585346 -0.81283,2.401073 -0.86859,3.570242 -0.78889,7.367723 0.22666,10.898683 1.33842,4.61125 4.39045,8.67621 8.36701,11.34995 3.79531,2.57102 8.46247,3.83386 13.03677,3.49744 3.13911,-0.21062 6.24836,-1.08672 8.97326,-2.67351 2.60454,-1.51187 4.86292,-3.60127 6.63369,-6.03274 1.87825,-2.58311 3.09526,-5.63056 3.56115,-8.78758 0.45781,-2.945011 0.29459,-5.984031 -0.48954,-8.860116 -0.81134,-3.047595 -2.3491,-5.897758 -4.45922,-8.242297 -0.94022,-1.046395 -1.97326,-2.014421 -3.09647,-2.861461 -0.35701,-0.213452 -0.90332,-0.274576 -1.18908,0.08682 -0.25792,0.375536 -0.0232,0.8528 0.27631,1.125053 0.86313,0.702882 1.70575,1.435397 2.46615,2.250514 2.04797,2.158111 3.57802,4.807202 4.3889,7.671774 0.53208,1.864651 0.80799,3.804896 0.81127,5.744085 -0.0136,1.660856 -0.25338,3.324748 -0.74226,4.912868 -0.3239,0.97236 -1.02933,1.74353 -1.68908,2.50249 -0.0814,0.085 -0.2271,0.2456 -0.33723,0.35564 -0.69367,0.72628 -1.48342,1.35252 -2.31265,1.91599 -0.77131,0.56023 -1.32812,1.45644 -1.33411,2.42647 -0.0167,0.58553 0.13152,1.16403 0.35373,1.70203 -2.23318,2.12599 -4.97959,3.7193 -7.95728,4.53457 -3.60436,1.00775 -7.50037,0.94857 -11.07345,-0.16315 -1.55122,-0.48581 -3.03263,-1.18712 -4.40195,-2.062 -0.0919,-0.0628 -0.26807,-0.17397 -0.39143,-0.25834 -0.86826,-0.58731 -1.69073,-1.24208 -2.46008,-1.95393 0.39837,-1.10503 0.43174,-2.37961 -0.10955,-3.44372 -0.31621,-0.65655 -0.82088,-1.1961 -1.36309,-1.67256 -0.31691,-0.30399 -0.49729,-0.81172 -0.25413,-1.21434 0.41322,-0.78935 1.17064,-1.38375 1.39233,-2.27316 0.22711,-0.77469 -0.0948,-1.62048 -0.67893,-2.1506 -0.73037,-0.66689 -1.71281,-0.98602 -2.67523,-1.12693 -0.78297,-0.101396 -1.58403,-0.03713 -2.34617,0.16471 -0.29267,-2.47171 -0.11934,-4.996837 0.52214,-7.402384 0.15182,-0.54542 0.25862,-1.115076 0.52482,-1.619282 0.38531,-0.672631 1.21014,-0.944139 1.94872,-0.895551 0.14245,0.007 0.34431,0.07338 0.30076,0.256831 -0.0372,0.36407 -0.14421,0.780055 -0.23151,1.095539 -0.26441,0.939935 -0.70086,1.817534 -1.15708,2.676269 -0.44242,0.94816 -0.57457,2.029735 -0.44406,3.06316 0.0661,0.5455 0.41398,1.136499 1.00118,1.216737 0.61357,0.08352 1.13336,-0.337381 1.59879,-0.67446 0.8326,-0.624052 1.52928,-1.401262 2.27261,-2.123326 0.91085,-0.859071 2.02859,-1.508035 3.25117,-1.798868 0.89729,-0.267888 1.87833,-0.47059 2.5725,-1.146995 0.52703,-0.489511 0.77778,-1.199409 0.84317,-1.901986 0.19218,-1.434415 -0.1265,-2.89473 -0.72262,-4.200338 -0.26336,-0.658241 -0.56728,-1.317664 -0.66345,-2.025605 -0.0328,-0.929658 0.33479,-1.872167 1.03744,-2.491647 0.48007,-0.387464 0.93079,-0.841436 1.16425,-1.424069 0.22007,-0.510268 0.29012,-1.075844 0.25111,-1.627542 0.37629,-0.09162 0.83243,-0.193241 1.2137,-0.2662 1.32496,-0.261911 2.67253,-0.396809 4.02164,-0.438666 0.44706,-0.05103 0.86443,-0.521105 0.69794,-0.975696 -0.12606,-0.362096 -0.51887,-0.552366 -0.88604,-0.535324 z m -17.62218,24.605218 c 0.88446,-0.012 1.77743,0.26336 2.49137,0.7861 0.23268,0.1564 0.22147,0.47084 0.0898,0.68932 -0.30681,0.58593 -0.73948,1.09007 -1.11563,1.62982 -0.42843,0.6496 -0.52342,1.50883 -0.19947,2.2226 0.38669,0.91119 1.35006,1.40264 1.76527,2.29805 0.23462,0.46066 0.33343,0.99481 0.24288,1.50637 -1.61559,-1.81681 -2.89234,-3.93604 -3.72071,-6.22288 -0.0517,-0.14401 -0.13301,-0.37288 -0.19054,-0.55095 -0.12469,-0.37585 -0.22661,-0.71816 -0.33242,-1.10838 -0.0939,-0.35377 -0.18129,-0.70937 -0.25632,-1.06763 0.39904,-0.1111 0.81137,-0.17518 1.22577,-0.18242 z m 33.75866,6.73292 c -0.52155,0.79169 -1.09609,1.54915 -1.72858,2.25568 -0.0848,-0.47251 0.0511,-1.00624 0.44938,-1.30245 0.44573,-0.40738 0.93611,-0.76135 1.40167,-1.14495 -0.0408,0.0639 -0.0816,0.12782 -0.12247,0.19172 z" />
    <path
       id="path8"
       style="fill:#000000;fill-opacity:1;stroke-width:0.264583"
       d="m 133.17016,90.624958 c -0.3667,0.04286 -0.63978,0.329316 -0.93758,0.522729 -0.46278,0.342472 -0.88758,0.766234 -1.27985,1.165024 -0.68187,-0.756759 -1.73375,-1.239446 -2.75952,-1.071769 -0.74234,0.137343 -1.43475,0.756232 -1.45969,1.544185 -0.0507,0.788554 0.41668,1.537428 1.07832,1.940872 0.6807,0.459595 1.58497,0.466297 2.32019,0.13438 0.24027,-0.101108 0.46952,-0.227584 0.68634,-0.372092 0.96006,0.645176 2.13679,1.025377 3.29885,0.863209 1.18416,-0.182764 2.46048,0.09744 3.3912,0.871958 0.94662,0.733673 1.42824,2.016477 1.19398,3.190578 -0.20273,0.963988 -0.99505,1.663848 -1.81838,2.127548 -1.21149,0.7128 -2.60431,1.06231 -3.99879,1.15942 -1.37655,0.11531 -2.74573,0.34525 -4.07875,0.70908 -1.58358,0.43723 -2.97389,1.46399 -3.9202,2.79947 -0.45939,0.62951 -0.99338,1.21663 -1.6218,1.68036 -0.34674,0.21222 -0.78779,0.38506 -1.19286,0.25336 -0.213,-0.0619 -0.25163,-0.30453 -0.17628,-0.48591 0.26355,-1.01026 0.90383,-1.86625 1.6147,-2.60957 0.37379,-0.41147 0.76654,-0.81228 1.03664,-1.30348 0.5189,-0.84729 0.79032,-1.82926 0.83302,-2.81895 0.0964,-1.301897 0.009,-2.607123 -0.0633,-3.907511 -0.005,-0.87567 0.26112,-1.72136 0.56431,-2.53266 0.11337,-0.403331 -0.005,-0.954027 -0.44907,-1.094507 -0.47091,-0.121023 -0.88524,0.290859 -1.03352,0.703008 -0.42767,0.951304 -0.62348,1.996713 -0.59999,3.038047 -0.016,1.166294 0.0589,2.33132 0.0775,3.496713 -0.0178,1.1778 -0.56506,2.28346 -1.31856,3.16561 -0.44421,0.58812 -0.98969,1.09374 -1.40947,1.70019 -0.49268,0.745 -0.80473,1.64343 -0.75144,2.54358 0.0477,0.88203 0.76847,1.6991 1.66558,1.76523 0.77363,0.0627 1.52422,-0.26235 2.16603,-0.66638 0.71182,-0.45552 1.25495,-1.11983 1.71548,-1.81811 0.40514,-0.55858 0.88828,-1.06305 1.44327,-1.47438 0.0813,-0.0613 0.18803,-0.13551 0.30953,-0.21592 0.96457,-0.64242 2.1061,-0.95908 3.24852,-1.08625 1.42947,-0.21001 2.8632,-0.39623 4.28612,-0.64668 1.75581,-0.34241 3.39172,-1.37341 4.36427,-2.88737 0.86881,-1.354013 0.99895,-3.203229 0.15669,-4.601454 -0.73508,-1.259744 -2.04525,-2.106311 -3.44708,-2.441971 -0.96403,-0.244864 -1.97207,-0.233482 -2.95215,-0.10355 -0.46996,0.03559 -0.94213,-0.138343 -1.2928,-0.449644 0.43369,-0.555458 0.99,-0.997455 1.58152,-1.373254 0.33207,-0.223784 0.53993,-0.709739 0.28968,-1.065191 -0.1603,-0.239024 -0.47602,-0.380151 -0.76068,-0.347948 z m -4.60437,2.154391 c 0.43045,0.04106 0.87964,0.173765 1.1927,0.486791 -0.35398,0.198697 -0.85622,0.393284 -1.20359,0.07894 -0.14479,-0.122705 -0.32918,-0.351985 -0.19323,-0.539379 0.0625,-0.03001 0.13657,-0.02589 0.20412,-0.02636 z" />
    <path
       id="path10"
       style="fill:#000000;fill-opacity:1"
       d="m 132.01172,110.17969 c -1.78613,0.0862 -3.04823,1.60069 -4.12305,2.86328 -0.69394,0.84679 -1.79978,1.02995 -2.82226,1.14648 -1.0289,0.25231 -2.15138,0.9809 -2.36133,2.07617 -0.0243,0.83266 1.2689,1.06809 1.52058,0.25652 0.71004,-1.09545 2.20937,-0.66045 3.2109,-1.28169 1.62029,-0.6198 2.26193,-2.41807 3.71188,-3.25607 0.73168,-0.35638 1.90582,-0.4571 2.22588,0.49189 0.21432,0.79279 0.6589,1.73877 1.61016,1.75004 0.6998,0.115 1.39802,-0.36516 2.07411,-0.19115 0.34644,0.70904 1.61819,0.48225 1.50977,-0.35743 -0.14638,-1.04183 -1.35063,-1.42086 -2.25618,-1.16439 -0.39342,-0.0609 -1.13812,0.39805 -1.28275,0.026 -0.12652,-1.45179 -1.67002,-2.36348 -3.01771,-2.35966 z" />
  </g>
</svg>
